<svg xmlns="http://www.w3.org/2000/svg" width="1979.899" height="414.257" viewBox="0 0 1979.899 414.257"><g transform="translate(64.347 -756.96)"><rect width="129" height="129" transform="translate(91.217 988.783) rotate(45)" fill="#fff"/><rect width="129" height="129" transform="translate(638.517 806.35) rotate(45)" fill="#fff"/><rect width="129" height="129" transform="translate(273.65 806.35) rotate(45)" fill="#fff"/><rect width="129" height="129" transform="translate(547.301 897.566) rotate(45)" fill="#fff"/><rect width="129" height="129" transform="translate(1368.252 806.35) rotate(45)" fill="#fff"/><rect width="129" height="129" transform="translate(820.951 988.783) rotate(45)" fill="#fff"/><rect width="129" height="129" transform="translate(1094.601 897.566) rotate(45)" fill="#fff"/><rect width="129" height="129" transform="translate(1550.685 988.783) rotate(45)" fill="#fff"/><rect width="129" height="129" transform="translate(1459.469 897.566) rotate(45)" fill="#fff"/><rect width="129" height="129" transform="translate(1824.336 897.566) rotate(45)" fill="#fff"/><g transform="translate(0 924.437) rotate(45)" fill="#656565" stroke="#707070" stroke-width="1"><rect width="91" height="91" stroke="none"/><rect x="0.5" y="0.5" width="90" height="90" fill="none"/></g><g transform="translate(209.304 951.307) rotate(45)" fill="#656565" stroke="#707070" stroke-width="1"><rect width="91" height="91" stroke="none"/><rect x="0.5" y="0.5" width="90" height="90" fill="none"/></g><g transform="translate(364.867 806.35) rotate(45)" fill="#656565" stroke="#707070" stroke-width="1"><rect width="91" height="91" stroke="none"/><rect x="0.5" y="0.5" width="90" height="90" fill="none"/></g><g transform="translate(611.647 951.307) rotate(45)" fill="#656565" stroke="#707070" stroke-width="1"><rect width="91" height="91" stroke="none"/><rect x="0.5" y="0.5" width="90" height="90" fill="none"/></g><g transform="translate(1797.466 951.307) rotate(45)" fill="#656565" stroke="#707070" stroke-width="1"><rect width="91" height="91" stroke="none"/><rect x="0.5" y="0.5" width="90" height="90" fill="none"/></g><g transform="translate(1550.685 907.307) rotate(45)" fill="#656565" stroke="#707070" stroke-width="1"><rect width="91" height="91" stroke="none"/><rect x="0.5" y="0.5" width="90" height="90" fill="none"/></g><g transform="translate(1187.347 778.613) rotate(45)" fill="#656565" stroke="#707070" stroke-width="1"><rect width="91" height="91" stroke="none"/><rect x="0.5" y="0.5" width="90" height="90" fill="none"/></g><g transform="translate(1303.905 1015.653) rotate(45)" fill="#656565" stroke="#707070" stroke-width="1"><rect width="91" height="91" stroke="none"/><rect x="0.5" y="0.5" width="90" height="90" fill="none"/></g><g transform="translate(930.347 886.96) rotate(45)" fill="#656565" stroke="#707070" stroke-width="1"><rect width="91" height="91" stroke="none"/><rect x="0.5" y="0.5" width="90" height="90" fill="none"/></g><g transform="translate(819.322 756.96) rotate(45)" fill="#0afff7" stroke="#707070" stroke-width="1"><rect width="25" height="25" stroke="none"/><rect x="0.5" y="0.5" width="24" height="24" fill="none"/></g><g transform="translate(446.891 806.35) rotate(45)" fill="#0afff7" stroke="#707070" stroke-width="1"><rect width="25" height="25" stroke="none"/><rect x="0.5" y="0.5" width="24" height="24" fill="none"/></g><g transform="translate(757.105 953.976) rotate(45)" fill="#0afff7" stroke="#707070" stroke-width="1"><rect width="25" height="25" stroke="none"/><rect x="0.5" y="0.5" width="24" height="24" fill="none"/></g><g transform="translate(1094.601 823.976) rotate(45)" fill="#0afff7" stroke="#707070" stroke-width="1"><rect width="25" height="25" stroke="none"/><rect x="0.5" y="0.5" width="24" height="24" fill="none"/></g><g transform="translate(384.666 1015.653) rotate(45)" fill="#0afff7" stroke="#707070" stroke-width="1"><rect width="25" height="25" stroke="none"/><rect x="0.5" y="0.5" width="24" height="24" fill="none"/></g><g transform="translate(1690.601 924.437) rotate(45)" fill="#0afff7" stroke="#707070" stroke-width="1"><rect width="25" height="25" stroke="none"/><rect x="0.5" y="0.5" width="24" height="24" fill="none"/></g><g transform="translate(1521.49 788.62) rotate(45)" fill="#0afff7" stroke="#707070" stroke-width="1"><rect width="25" height="25" stroke="none"/><rect x="0.5" y="0.5" width="24" height="24" fill="none"/></g></g></svg>