<svg xmlns="http://www.w3.org/2000/svg" width="30.759" height="30" viewBox="0 0 30.759 30"><path d="M151.7,383.44a15.381,15.381,0,0,0-4.86,29.974c.769.141,1.05-.333,1.05-.741,0-.365-.013-1.332-.021-2.616-4.278.93-5.181-2.061-5.181-2.061a4.073,4.073,0,0,0-1.708-2.25c-1.4-.955.106-.935.106-.935a3.229,3.229,0,0,1,2.356,1.584,3.275,3.275,0,0,0,4.476,1.278,3.288,3.288,0,0,1,.976-2.056c-3.415-.388-7.006-1.707-7.006-7.6a5.946,5.946,0,0,1,1.583-4.127,5.525,5.525,0,0,1,.151-4.07s1.291-.414,4.229,1.577a14.584,14.584,0,0,1,7.7,0c2.936-1.99,4.225-1.577,4.225-1.577a5.527,5.527,0,0,1,.154,4.07,5.935,5.935,0,0,1,1.58,4.127c0,5.908-3.6,7.209-7.023,7.589a3.672,3.672,0,0,1,1.044,2.849c0,2.056-.019,3.715-.019,4.219,0,.411.278.889,1.057.739A15.382,15.382,0,0,0,151.7,383.44Z" transform="translate(-136.32 -383.44)" fill="#fff" fill-rule="evenodd"/></svg>